PathFileType	4	(X/Y/Z)	\\Move.snu.ac.kr\motion\Animal\091204_091205_Bird\091205_bird\Project 2\Capture day 2\Session 1\pigeon_015.trc
DataRate	CameraRate	NumFrames	NumMarkers	Units	OrigDataRate	OrigDataStartFrame	OrigNumFrames
240.0	240.0	10	14	mm	240.0	159	2522
Frame#	Time	14MarkersBird:Head			14MarkersBird:C_back			14MarkersBird:Spine			14MarkersBird:L-shoulder			14MarkersBird:L-elbow			14MarkersBird:L-wrist			14MarkersBird:L-hand			14MarkersBird:R-shoulder			14MarkersBird:R-elbow			14MarkersBird:R-Wrist			14MarkersBird:R-hand			14MarkersBird:C_Tail			14MarkersBird:L-Tale			14MarkersBird:R-Tale			
		X1	Y1	Z1	X2	Y2	Z2	X3	Y3	Z3	X4	Y4	Z4	X5	Y5	Z5	X6	Y6	Z6	X7	Y7	Z7	X8	Y8	Z8	X9	Y9	Z9	X10	Y10	Z10	X11	Y11	Z11	X12	Y12	Z12	X13	Y13	Z13	X14	Y14	Z14	

1275	5.308	-678.38336	1282.03882	-494.14560	-623.11694	1290.80505	-510.49554	-569.15253	1286.02539	-523.61383	-644.45721	1284.27271	-480.34283	-619.18988	1310.82947	-500.91351	-629.15076	1346.87073	-472.18585	-610.40027	1369.34399	-479.03467	-654.53680	1284.12134	-520.14276	-627.03888	1310.82727	-520.45685	-649.23651	1342.17700	-544.55304	-625.40070	1373.56421	-558.76453	-461.60178	1224.00867	-533.89636	-513.72687	1265.88318	-439.44821	-554.22864	1250.92346	-629.90350	
1276	5.313	-687.07001	1278.04688	-491.56253	-631.16443	1286.43958	-507.70624	-577.34528	1279.98633	-520.77075	-653.09174	1280.56348	-477.72684	-629.49365	1307.61963	-496.22766	-637.74231	1342.57129	-465.46701	-622.56641	1367.70349	-473.13815	-663.16107	1279.74084	-518.59479	-638.21729	1307.02429	-519.62988	-658.68317	1337.50244	-545.96436	-637.87256	1372.92334	-557.49152	-468.92746	1221.00305	-530.35254	-522.77008	1264.06262	-436.22290	-562.75525	1246.64905	-626.84381	
1277	5.317	-695.68439	1274.27075	-489.05750	-639.24817	1282.19629	-504.87897	-585.93671	1273.85742	-517.77759	-661.58276	1276.65308	-475.25458	-638.57941	1304.04358	-490.42624	-645.90076	1336.13159	-456.56171	-633.55542	1363.28088	-461.83078	-671.76544	1275.21570	-517.10797	-649.03400	1302.94653	-520.11151	-668.69922	1330.11279	-549.78748	-652.25586	1367.08276	-562.43109	-476.42062	1218.20203	-527.21411	-531.55316	1262.12268	-433.32562	-571.04742	1241.49890	-623.57147	
1278	5.321	-704.30377	1270.77124	-486.61108	-647.43140	1278.11609	-502.01276	-594.78625	1268.13550	-514.73682	-670.08167	1272.53564	-472.88031	-646.76251	1299.89905	-483.43085	-653.83313	1327.42981	-446.02722	-643.41479	1355.68726	-446.35867	-680.46667	1270.46411	-515.60071	-659.18335	1298.26550	-521.89148	-679.24603	1319.81848	-555.25690	-667.61395	1355.91089	-572.05420	-484.28381	1215.25000	-524.28210	-540.26886	1259.80310	-430.51575	-579.35583	1235.30591	-620.13831	
1279	5.325	-713.00934	1267.55127	-484.16888	-655.77679	1274.23975	-499.10678	-603.62909	1263.38928	-511.81244	-678.73425	1268.32275	-470.46530	-654.65588	1294.98474	-475.34033	-662.10596	1316.42322	-434.75040	-652.94836	1344.32788	-428.77249	-689.36292	1265.44922	-514.02277	-668.94159	1292.56824	-524.64343	-690.51263	1306.71375	-560.96881	-683.74127	1339.46179	-583.48291	-492.61487	1211.86438	-521.29993	-549.07019	1256.75391	-427.56522	-587.84668	1228.08679	-616.56714	
1280	5.329	-721.86145	1264.56213	-481.70322	-664.34613	1270.60779	-496.16013	-612.37329	1259.92761	-509.01401	-687.62982	1264.19092	-467.88702	-662.83136	1289.10681	-466.57639	-671.48309	1303.13794	-423.82782	-663.38129	1328.88013	-411.29269	-698.49451	1260.29480	-512.27637	-679.01740	1285.53735	-527.71912	-702.76630	1291.23389	-565.21484	-700.95074	1318.08850	-593.50787	-501.40842	1207.94897	-518.05206	-558.00043	1252.77930	-424.38467	-596.51489	1220.18433	-612.82782	
1281	5.333	-730.89038	1261.71692	-479.23666	-673.16797	1267.24280	-493.17612	-621.12933	1257.62500	-506.25671	-696.77844	1260.30664	-465.13974	-671.65955	1282.18677	-457.81125	-682.59583	1287.83850	-414.41058	-675.84845	1309.56274	-395.86987	-707.84332	1255.30774	-510.24213	-690.04138	1277.12048	-530.34210	-716.09625	1274.12036	-566.43256	-719.36157	1292.76721	-599.26733	-510.59000	1203.63123	-514.44043	-566.97229	1247.97253	-421.06900	-605.17786	1212.20129	-608.87512	
1282	5.338	-740.09784	1258.92737	-476.80243	-682.13446	1264.14551	-490.24417	-630.01569	1256.01355	-503.52237	-706.15533	1256.77332	-462.30792	-681.26630	1274.35022	-449.71075	-695.62335	1271.24487	-407.56531	-690.94818	1287.21423	-384.17615	-717.34143	1250.84363	-507.89221	-702.13025	1267.58374	-531.76630	-730.23370	1256.37378	-563.58777	-738.51794	1265.27637	-598.69989	-520.06183	1199.20129	-510.52133	-575.81085	1242.66003	-417.84354	-613.53094	1204.79272	-604.72803	
1283	5.342	-749.46661	1256.12170	-474.39877	-691.17688	1261.34094	-487.63614	-639.07800	1254.57849	-500.82916	-715.73523	1253.59070	-459.48526	-691.54364	1265.89905	-442.73541	-710.21979	1254.52039	-404.06665	-708.49646	1263.28760	-377.62036	-726.91644	1247.11072	-505.32669	-714.86456	1257.49097	-531.44806	-744.57800	1239.28699	-556.42896	-757.48352	1237.98230	-590.92255	-529.73145	1194.97717	-506.50519	-584.33588	1237.22266	-414.95828	-621.25336	1198.47192	-600.49249	
1284	5.346	-758.97736	1253.23181	-471.99219	-700.57996	1258.72510	-485.37515	-648.35687	1252.98999	-498.16101	-725.48389	1250.65564	-456.73703	-702.20721	1257.25757	-437.12152	-725.66071	1239.08484	-404.06256	-727.54132	1239.76453	-377.02637	-736.54370	1244.06885	-502.68121	-727.54340	1247.62598	-529.29956	-758.38635	1224.34766	-545.60052	-775.14288	1213.39319	-576.44946	-539.53833	1191.14893	-502.67035	-592.49292	1231.88977	-412.56027	-628.14880	1193.50793	-596.30292	
